<?xml version="1.0" encoding="utf-8"?>
<!-- Generator: Adobe Illustrator 27.7.0, SVG Export Plug-In . SVG Version: 6.00 Build 0)  -->
<svg version="1.1" id="レイヤー_1" xmlns="http://www.w3.org/2000/svg" xmlns:xlink="http://www.w3.org/1999/xlink" x="0px"
	 y="0px" viewBox="0 0 768 768" style="enable-background:new 0 0 768 768;" xml:space="preserve">
<style type="text/css">
	.st0{fill:#FFFFFF;}
</style>
<circle cx="384" cy="384" r="384"/>
<g>
	<g>
		<path class="st0" d="M176.88,284.23c2.53-120.4,81.67-207.97,204.6-207.97c159.13,0,209.65,97.67,209.65,162.5
			c0,81.67-34.52,114.51-70.72,142.29c-36.21,26.94-74.94,48.83-82.51,98.51v31.99H324.22v-37.89
			c5.05-73.25,39.57-106.09,73.25-132.19c32.84-26.1,61.46-45.47,61.46-90.93c0-51.36-26.94-75.78-71.57-75.78
			c-60.62,0-85.88,49.68-86.72,109.46H176.88z M312.43,562.08h132.19v129.66H312.43V562.08z"/>
	</g>
</g>
</svg>
