<?xml version="1.0" encoding="utf-8"?>
<!-- Generator: Adobe Illustrator 27.7.0, SVG Export Plug-In . SVG Version: 6.00 Build 0)  -->
<svg version="1.1" id="レイヤー_1" xmlns="http://www.w3.org/2000/svg" xmlns:xlink="http://www.w3.org/1999/xlink" x="0px"
	 y="0px" viewBox="0 0 768 768" style="enable-background:new 0 0 768 768;" xml:space="preserve">
<style type="text/css">
	.st0{fill:#FFFFFF;}
</style>
<circle cx="384" cy="384" r="384"/>
<g>
	<g>
		<path class="st0" d="M199.1,295c2.3-107.5,72.9-185.6,182.6-185.6c142,0,187.1,87.2,187.1,145c0,72.9-30.8,102.2-63.1,127
			c-32.3,24-66.9,43.6-73.6,87.9v28.6H330.6V464c4.5-65.4,35.3-94.7,65.4-118c29.3-23.3,54.9-40.6,54.9-81.2
			c0-45.8-24-67.6-63.9-67.6c-54.1,0-76.7,44.3-77.4,97.7L199.1,295L199.1,295z M320.1,542.9h118v115.7h-118V542.9z"/>
	</g>
</g>
</svg>
